<mxfile host="app.diagrams.net" modified="2023-04-25T12:15:49.884Z" agent="Mozilla/5.0 (Windows NT 10.0; Win64; x64) AppleWebKit/537.36 (KHTML, like Gecko) Chrome/112.0.0.0 Safari/537.36" etag="5bTcKeVgG5uXXKcVIj9-" version="21.2.1" type="github">
  <diagram id="Wd_oJn38wZUzVgSo89xS" name="Page-1">
    <mxGraphModel dx="1373" dy="753" grid="0" gridSize="10" guides="1" tooltips="1" connect="1" arrows="1" fold="1" page="1" pageScale="1" pageWidth="4681" pageHeight="3300" math="0" shadow="0">
      <root>
        <mxCell id="0" />
        <mxCell id="1" parent="0" />
        <mxCell id="pzFhs3liKInP-grsurP8-2" value="&lt;font style=&quot;font-size: 14px&quot;&gt;Диаграмма прецедентов&lt;br&gt;&lt;/font&gt;" style="shape=umlFrame;whiteSpace=wrap;html=1;width=100;height=60;perimeterSpacing=0;shadow=0;fontFamily=GOST type A Regular;fontSource=https%3A%2F%2Fwebfonts.pro%2Flight-fonts%2F123-gost_type_a.html;" parent="1" vertex="1">
          <mxGeometry x="741" y="468" width="1066" height="900" as="geometry" />
        </mxCell>
        <mxCell id="fxZrF64DbxteIdhBLfol-4" style="edgeStyle=orthogonalEdgeStyle;rounded=0;orthogonalLoop=1;jettySize=auto;html=1;exitX=0.5;exitY=0;exitDx=0;exitDy=0;exitPerimeter=0;endArrow=block;endFill=0;endSize=15;" parent="1" source="pzFhs3liKInP-grsurP8-4" edge="1">
          <mxGeometry relative="1" as="geometry">
            <mxPoint x="665" y="806" as="targetPoint" />
          </mxGeometry>
        </mxCell>
        <mxCell id="pzFhs3liKInP-grsurP8-4" value="&lt;span style=&quot;font-size: 14px;&quot;&gt;Авторизованный&lt;br&gt;Пользователь&lt;/span&gt;" style="shape=umlActor;verticalLabelPosition=bottom;verticalAlign=top;html=1;fontFamily=GOST type A Regular;fontSource=https%3A%2F%2Fwebfonts.pro%2Flight-fonts%2F123-gost_type_a.html;" parent="1" vertex="1">
          <mxGeometry x="635" y="990" width="60" height="140" as="geometry" />
        </mxCell>
        <mxCell id="75nwqV4LWfnyFNcIzqMc-3" style="edgeStyle=orthogonalEdgeStyle;rounded=0;orthogonalLoop=1;jettySize=auto;html=1;exitX=1;exitY=1;exitDx=0;exitDy=0;entryX=0;entryY=0.5;entryDx=0;entryDy=0;strokeColor=none;startArrow=none;fontFamily=GOST type A Regular;fontSource=https%3A%2F%2Fwebfonts.pro%2Flight-fonts%2F123-gost_type_a.html;" parent="1" source="3QS9H70OiHH0bNNLxcRu-53" edge="1">
          <mxGeometry relative="1" as="geometry">
            <mxPoint x="1096.9730526852054" y="845.0519452990877" as="sourcePoint" />
            <mxPoint x="1078" y="849.5" as="targetPoint" />
          </mxGeometry>
        </mxCell>
        <mxCell id="_zqxxpLCkDMLm2a-AfCi-22" value="&amp;lt;&amp;lt;extend&amp;gt;&amp;gt;" style="text;html=1;strokeColor=none;fillColor=none;align=center;verticalAlign=middle;whiteSpace=wrap;rounded=0;shadow=0;fontFamily=GOST type A Regular;fontSource=https%3A%2F%2Fwebfonts.pro%2Flight-fonts%2F123-gost_type_a.html;" parent="1" vertex="1">
          <mxGeometry x="1021" y="728" width="40" height="20" as="geometry" />
        </mxCell>
        <mxCell id="_zqxxpLCkDMLm2a-AfCi-23" style="edgeStyle=none;rounded=0;jumpStyle=none;jumpSize=21;orthogonalLoop=1;jettySize=auto;html=1;exitX=0;exitY=0.5;exitDx=0;exitDy=0;entryX=1;entryY=0.5;entryDx=0;entryDy=0;dashed=1;startSize=19;endSize=20;strokeWidth=2;fontFamily=GOST type A Regular;fontSource=https%3A%2F%2Fwebfonts.pro%2Flight-fonts%2F123-gost_type_a.html;" parent="1" source="3QS9H70OiHH0bNNLxcRu-14" target="3QS9H70OiHH0bNNLxcRu-13" edge="1">
          <mxGeometry relative="1" as="geometry">
            <mxPoint x="1343" y="849.5" as="sourcePoint" />
            <mxPoint x="1278" y="849.5" as="targetPoint" />
          </mxGeometry>
        </mxCell>
        <mxCell id="3QS9H70OiHH0bNNLxcRu-1" value="&lt;font style=&quot;font-size: 14px&quot;&gt;Просмотр услуг или заказов&lt;/font&gt;" style="ellipse;whiteSpace=wrap;html=1;fontFamily=GOST type A Regular;fontSource=https%3A%2F%2Fwebfonts.pro%2Flight-fonts%2F123-gost_type_a.html;" parent="1" vertex="1">
          <mxGeometry x="804" y="692" width="200" height="135" as="geometry" />
        </mxCell>
        <mxCell id="3QS9H70OiHH0bNNLxcRu-2" value="&lt;font style=&quot;font-size: 14px&quot;&gt;Сортировка по категориям&lt;/font&gt;" style="ellipse;whiteSpace=wrap;html=1;fontFamily=GOST type A Regular;fontSource=https%3A%2F%2Fwebfonts.pro%2Flight-fonts%2F123-gost_type_a.html;" parent="1" vertex="1">
          <mxGeometry x="1065" y="692" width="200" height="135" as="geometry" />
        </mxCell>
        <mxCell id="3QS9H70OiHH0bNNLxcRu-3" style="edgeStyle=none;rounded=0;jumpStyle=none;jumpSize=21;orthogonalLoop=1;jettySize=auto;html=1;exitX=0;exitY=0.5;exitDx=0;exitDy=0;entryX=1;entryY=0.5;entryDx=0;entryDy=0;dashed=1;startSize=19;endSize=20;strokeWidth=2;fontFamily=GOST type A Regular;fontSource=https%3A%2F%2Fwebfonts.pro%2Flight-fonts%2F123-gost_type_a.html;" parent="1" source="3QS9H70OiHH0bNNLxcRu-2" target="3QS9H70OiHH0bNNLxcRu-1" edge="1">
          <mxGeometry relative="1" as="geometry">
            <mxPoint x="1048" y="684" as="sourcePoint" />
            <mxPoint x="983" y="684" as="targetPoint" />
          </mxGeometry>
        </mxCell>
        <mxCell id="3QS9H70OiHH0bNNLxcRu-10" value="&lt;span style=&quot;font-size: 14px;&quot;&gt;Администратор&lt;/span&gt;" style="shape=umlActor;verticalLabelPosition=bottom;verticalAlign=top;html=1;fontFamily=GOST type A Regular;fontSource=https%3A%2F%2Fwebfonts.pro%2Flight-fonts%2F123-gost_type_a.html;" parent="1" vertex="1">
          <mxGeometry x="1886" y="585" width="60" height="140" as="geometry" />
        </mxCell>
        <mxCell id="3QS9H70OiHH0bNNLxcRu-13" value="&lt;font style=&quot;font-size: 14px&quot;&gt;Авторизация&lt;/font&gt;" style="ellipse;whiteSpace=wrap;html=1;fontFamily=GOST type A Regular;fontSource=https%3A%2F%2Fwebfonts.pro%2Flight-fonts%2F123-gost_type_a.html;" parent="1" vertex="1">
          <mxGeometry x="802" y="536" width="200" height="135" as="geometry" />
        </mxCell>
        <mxCell id="3QS9H70OiHH0bNNLxcRu-14" value="&lt;font style=&quot;font-size: 14px&quot;&gt;Регистрация&lt;/font&gt;" style="ellipse;whiteSpace=wrap;html=1;fontFamily=GOST type A Regular;fontSource=https%3A%2F%2Fwebfonts.pro%2Flight-fonts%2F123-gost_type_a.html;" parent="1" vertex="1">
          <mxGeometry x="1070" y="532" width="200" height="135" as="geometry" />
        </mxCell>
        <mxCell id="3QS9H70OiHH0bNNLxcRu-19" value="&lt;span style=&quot;font-size: 14px;&quot;&gt;Удаление любой услуги или комментария&lt;/span&gt;" style="ellipse;whiteSpace=wrap;html=1;fontFamily=GOST type A Regular;fontSource=https%3A%2F%2Fwebfonts.pro%2Flight-fonts%2F123-gost_type_a.html;" parent="1" vertex="1">
          <mxGeometry x="1599" y="496" width="200" height="135" as="geometry" />
        </mxCell>
        <mxCell id="3QS9H70OiHH0bNNLxcRu-20" value="" style="endArrow=none;html=1;exitX=0.5;exitY=0.5;exitDx=0;exitDy=0;exitPerimeter=0;entryX=1;entryY=0.5;entryDx=0;entryDy=0;fontFamily=GOST type A Regular;fontSource=https%3A%2F%2Fwebfonts.pro%2Flight-fonts%2F123-gost_type_a.html;" parent="1" source="3QS9H70OiHH0bNNLxcRu-10" target="3QS9H70OiHH0bNNLxcRu-19" edge="1">
          <mxGeometry width="50" height="50" relative="1" as="geometry">
            <mxPoint x="1727" y="706" as="sourcePoint" />
            <mxPoint x="1320" y="658.5" as="targetPoint" />
          </mxGeometry>
        </mxCell>
        <mxCell id="3QS9H70OiHH0bNNLxcRu-21" value="&lt;font style=&quot;font-size: 14px&quot;&gt;Создание, изменение, удаление своих услуг&lt;/font&gt;" style="ellipse;whiteSpace=wrap;html=1;fontFamily=GOST type A Regular;fontSource=https%3A%2F%2Fwebfonts.pro%2Flight-fonts%2F123-gost_type_a.html;" parent="1" vertex="1">
          <mxGeometry x="778" y="1195" width="200" height="135" as="geometry" />
        </mxCell>
        <mxCell id="3QS9H70OiHH0bNNLxcRu-56" style="rounded=0;orthogonalLoop=1;jettySize=auto;html=1;exitX=0.5;exitY=0.5;exitDx=0;exitDy=0;exitPerimeter=0;entryX=0;entryY=0.5;entryDx=0;entryDy=0;fontFamily=GOST type A Regular;fontSource=https%3A%2F%2Fwebfonts.pro%2Flight-fonts%2F123-gost_type_a.html;" parent="1" source="3QS9H70OiHH0bNNLxcRu-36" target="3QS9H70OiHH0bNNLxcRu-13" edge="1">
          <mxGeometry relative="1" as="geometry" />
        </mxCell>
        <mxCell id="3QS9H70OiHH0bNNLxcRu-36" value="&lt;span style=&quot;font-size: 14px;&quot;&gt;Неавторизованный&lt;br&gt;Пользователь&lt;/span&gt;" style="shape=umlActor;verticalLabelPosition=bottom;verticalAlign=top;html=1;fontFamily=GOST type A Regular;fontSource=https%3A%2F%2Fwebfonts.pro%2Flight-fonts%2F123-gost_type_a.html;" parent="1" vertex="1">
          <mxGeometry x="635" y="626" width="60" height="140" as="geometry" />
        </mxCell>
        <mxCell id="3QS9H70OiHH0bNNLxcRu-37" value="" style="endArrow=none;html=1;exitX=0;exitY=0.5;exitDx=0;exitDy=0;entryX=0.5;entryY=0.5;entryDx=0;entryDy=0;fontFamily=GOST type A Regular;fontSource=https%3A%2F%2Fwebfonts.pro%2Flight-fonts%2F123-gost_type_a.html;entryPerimeter=0;" parent="1" source="3QS9H70OiHH0bNNLxcRu-1" target="3QS9H70OiHH0bNNLxcRu-36" edge="1">
          <mxGeometry width="50" height="50" relative="1" as="geometry">
            <mxPoint x="672" y="624" as="sourcePoint" />
            <mxPoint x="874.0000000000009" y="629.5" as="targetPoint" />
          </mxGeometry>
        </mxCell>
        <mxCell id="3QS9H70OiHH0bNNLxcRu-41" value="&lt;span style=&quot;font-size: 14px;&quot;&gt;Добавление комментариев к услугам&lt;/span&gt;" style="ellipse;whiteSpace=wrap;html=1;fontFamily=GOST type A Regular;fontSource=https%3A%2F%2Fwebfonts.pro%2Flight-fonts%2F123-gost_type_a.html;" parent="1" vertex="1">
          <mxGeometry x="1065" y="1029" width="200" height="135" as="geometry" />
        </mxCell>
        <mxCell id="3QS9H70OiHH0bNNLxcRu-44" value="&lt;span style=&quot;font-size: 14px;&quot;&gt;Создание и использование чатов&amp;nbsp;&lt;/span&gt;" style="ellipse;whiteSpace=wrap;html=1;fontFamily=GOST type A Regular;fontSource=https%3A%2F%2Fwebfonts.pro%2Flight-fonts%2F123-gost_type_a.html;" parent="1" vertex="1">
          <mxGeometry x="802" y="842" width="200" height="135" as="geometry" />
        </mxCell>
        <mxCell id="3QS9H70OiHH0bNNLxcRu-49" value="" style="endArrow=none;html=1;exitX=0;exitY=0.5;exitDx=0;exitDy=0;fontFamily=GOST type A Regular;fontSource=https%3A%2F%2Fwebfonts.pro%2Flight-fonts%2F123-gost_type_a.html;entryX=0.5;entryY=0.5;entryDx=0;entryDy=0;entryPerimeter=0;" parent="1" source="3QS9H70OiHH0bNNLxcRu-44" target="pzFhs3liKInP-grsurP8-4" edge="1">
          <mxGeometry width="50" height="50" relative="1" as="geometry">
            <mxPoint x="819.0000000000059" y="765.5" as="sourcePoint" />
            <mxPoint x="1297" y="1075" as="targetPoint" />
          </mxGeometry>
        </mxCell>
        <mxCell id="3QS9H70OiHH0bNNLxcRu-50" value="&lt;span style=&quot;font-size: 14px;&quot;&gt;Взаимодействие между заказчиком и исполнителем&lt;/span&gt;" style="ellipse;whiteSpace=wrap;html=1;fontFamily=GOST type A Regular;fontSource=https%3A%2F%2Fwebfonts.pro%2Flight-fonts%2F123-gost_type_a.html;" parent="1" vertex="1">
          <mxGeometry x="1102" y="842" width="200" height="135" as="geometry" />
        </mxCell>
        <mxCell id="3QS9H70OiHH0bNNLxcRu-51" style="edgeStyle=none;rounded=0;jumpStyle=none;jumpSize=21;orthogonalLoop=1;jettySize=auto;html=1;exitX=0;exitY=0.5;exitDx=0;exitDy=0;entryX=1;entryY=0.5;entryDx=0;entryDy=0;dashed=1;startSize=19;endSize=20;strokeWidth=2;fontFamily=GOST type A Regular;fontSource=https%3A%2F%2Fwebfonts.pro%2Flight-fonts%2F123-gost_type_a.html;" parent="1" source="3QS9H70OiHH0bNNLxcRu-50" target="3QS9H70OiHH0bNNLxcRu-44" edge="1">
          <mxGeometry relative="1" as="geometry">
            <mxPoint x="1517.0000000000068" y="592.4999999999998" as="sourcePoint" />
            <mxPoint x="1406.999999999999" y="594.5" as="targetPoint" />
          </mxGeometry>
        </mxCell>
        <mxCell id="3QS9H70OiHH0bNNLxcRu-52" style="edgeStyle=none;rounded=0;jumpStyle=none;jumpSize=21;orthogonalLoop=1;jettySize=auto;html=1;exitX=1;exitY=0.5;exitDx=0;exitDy=0;entryX=0;entryY=0.5;entryDx=0;entryDy=0;dashed=1;startSize=19;endSize=20;strokeWidth=2;fontFamily=GOST type A Regular;fontSource=https%3A%2F%2Fwebfonts.pro%2Flight-fonts%2F123-gost_type_a.html;" parent="1" source="3QS9H70OiHH0bNNLxcRu-50" edge="1">
          <mxGeometry relative="1" as="geometry">
            <mxPoint x="1107.0578648982364" y="877.9270388141115" as="sourcePoint" />
            <mxPoint x="1599.0000000000005" y="911.5" as="targetPoint" />
          </mxGeometry>
        </mxCell>
        <mxCell id="3QS9H70OiHH0bNNLxcRu-53" value="&amp;lt;&amp;lt;extend&amp;gt;&amp;gt;" style="text;html=1;strokeColor=none;fillColor=none;align=center;verticalAlign=middle;whiteSpace=wrap;rounded=0;shadow=0;fontFamily=GOST type A Regular;fontSource=https%3A%2F%2Fwebfonts.pro%2Flight-fonts%2F123-gost_type_a.html;" parent="1" vertex="1">
          <mxGeometry x="1327" y="818" width="40" height="20" as="geometry" />
        </mxCell>
        <mxCell id="3QS9H70OiHH0bNNLxcRu-54" value="" style="edgeStyle=orthogonalEdgeStyle;rounded=0;orthogonalLoop=1;jettySize=auto;html=1;exitX=1;exitY=1;exitDx=0;exitDy=0;entryX=0;entryY=0.5;entryDx=0;entryDy=0;strokeColor=none;endArrow=none;fontFamily=GOST type A Regular;fontSource=https%3A%2F%2Fwebfonts.pro%2Flight-fonts%2F123-gost_type_a.html;" parent="1" target="3QS9H70OiHH0bNNLxcRu-53" edge="1">
          <mxGeometry relative="1" as="geometry">
            <mxPoint x="1096.9730526852054" y="845.0519452990877" as="sourcePoint" />
            <mxPoint x="1078" y="849.5" as="targetPoint" />
          </mxGeometry>
        </mxCell>
        <mxCell id="3QS9H70OiHH0bNNLxcRu-55" value="&amp;lt;&amp;lt;extend&amp;gt;&amp;gt;" style="text;html=1;strokeColor=none;fillColor=none;align=center;verticalAlign=middle;whiteSpace=wrap;rounded=0;shadow=0;fontFamily=GOST type A Regular;fontSource=https%3A%2F%2Fwebfonts.pro%2Flight-fonts%2F123-gost_type_a.html;" parent="1" vertex="1">
          <mxGeometry x="1507" y="822" width="40" height="20" as="geometry" />
        </mxCell>
        <mxCell id="3QS9H70OiHH0bNNLxcRu-60" value="&amp;lt;&amp;lt;extend&amp;gt;&amp;gt;" style="text;html=1;strokeColor=none;fillColor=none;align=center;verticalAlign=middle;whiteSpace=wrap;rounded=0;shadow=0;fontFamily=GOST type A Regular;fontSource=https%3A%2F%2Fwebfonts.pro%2Flight-fonts%2F123-gost_type_a.html;" parent="1" vertex="1">
          <mxGeometry x="1021" y="565" width="40" height="20" as="geometry" />
        </mxCell>
        <mxCell id="fxZrF64DbxteIdhBLfol-7" style="edgeStyle=orthogonalEdgeStyle;rounded=0;orthogonalLoop=1;jettySize=auto;html=1;endArrow=block;endFill=0;endSize=15;" parent="1" edge="1">
          <mxGeometry relative="1" as="geometry">
            <mxPoint x="665" y="1177" as="targetPoint" />
            <mxPoint x="1312" y="1492" as="sourcePoint" />
            <Array as="points">
              <mxPoint x="1318" y="1492" />
              <mxPoint x="1318" y="1606" />
              <mxPoint x="665" y="1606" />
            </Array>
          </mxGeometry>
        </mxCell>
        <mxCell id="fxZrF64DbxteIdhBLfol-8" value="&lt;span style=&quot;font-size: 14px;&quot;&gt;Изменение данных профиля&lt;/span&gt;" style="ellipse;whiteSpace=wrap;html=1;fontFamily=GOST type A Regular;fontSource=https%3A%2F%2Fwebfonts.pro%2Flight-fonts%2F123-gost_type_a.html;" parent="1" vertex="1">
          <mxGeometry x="802" y="1023" width="200" height="135" as="geometry" />
        </mxCell>
      </root>
    </mxGraphModel>
  </diagram>
</mxfile>
